<svg id="Layer_1" data-name="Layer 1" xmlns="http://www.w3.org/2000/svg" viewBox="0 0 718.53 443.52"><defs><style>.cls-1{font-size:130px;}.cls-1,.cls-7{font-family:HelveticaNeue-Thin, Helvetica Neue;}.cls-2{letter-spacing:-0.01em;}.cls-3,.cls-4,.cls-5,.cls-6{fill:none;stroke:#000;stroke-miterlimit:10;}.cls-3,.cls-4{stroke-width:2.69px;}.cls-4{stroke-dasharray:12.06 12.06;}.cls-5,.cls-6{stroke-width:3px;}.cls-6{stroke-dasharray:11.91 11.91;}.cls-7{font-size:100px;}</style></defs><title>data-flow-react</title><text class="cls-1" transform="translate(0 111.41)">sta<tspan class="cls-2" x="161.2" y="0">t</tspan><tspan x="193.05" y="0" xml:space="preserve">e      view</tspan></text><path class="cls-3" d="M700.76,257q0,3-.12,6" transform="translate(-111.04 -100.36)"/><path class="cls-4" d="M699.63,275C688.79,361.25,601,429.11,492,433.79" transform="translate(-111.04 -100.36)"/><path class="cls-3" d="M486,434q-3,.06-6,.06" transform="translate(-111.04 -100.36)"/><path class="cls-5" d="M259.29,260.63q.07,3,.27,6" transform="translate(-111.04 -100.36)"/><path class="cls-6" d="M260.84,278.46C273.55,363.06,360.52,429.2,468,433.79" transform="translate(-111.04 -100.36)"/><path class="cls-5" d="M474,434q3,.06,6,.06" transform="translate(-111.04 -100.36)"/><path d="M245.61,281.58a1.5,1.5,0,0,0,2.06-.53l11.71-19.73,12.93,19a1.5,1.5,0,1,0,2.48-1.69l-14.26-20.9a1.5,1.5,0,0,0-2.53.08l-12.92,21.76a1.5,1.5,0,0,0,.53,2.06Z" transform="translate(-111.04 -100.36)"/><text class="cls-7" transform="translate(241.6 411.92)">action</text><line class="cls-5" x1="298.42" y1="74.99" x2="433.98" y2="74.99"/><polygon points="421.06 90.94 418.4 88.08 432.48 75 418.4 61.9 421.06 59.04 438.21 75 421.06 90.94"/></svg>